/* XPM */
static char *result[] = {
/* columns rows colors chars-per-pixel */
"128 128 73 1 ",
"  c #040404",
". c #070708",
"X c #0A0A0C",
"o c #0E0E11",
"O c #121214",
"+ c #15151A",
"@ c #19191D",
"# c #1D1D22",
"$ c #1F1F28",
"% c #222225",
"& c #25252A",
"* c #2A2A2D",
"= c #262631",
"- c #2C2C33",
"; c #2E2E39",
": c #313135",
"> c #33333B",
", c #39393E",
"< c #363642",
"1 c #3B3B44",
"2 c #3D3D4B",
"3 c #3F3F51",
"4 c #414146",
"5 c #43434C",
"6 c #49494D",
"7 c #444453",
"8 c #4A4A55",
"9 c #464659",
"0 c #4C4C5C",
"q c #515156",
"w c #52525D",
"e c #5A5A5D",
"r c #4E4E61",
"t c #535363",
"y c #5A5A65",
"u c #565669",
"i c #5C5C6B",
"p c #5E5E71",
"a c #616165",
"s c #62626D",
"d c #69696E",
"f c #646473",
"g c #6A6A75",
"h c #666679",
"j c #6C6C7A",
"k c #707077",
"l c #73737D",
"z c #78787E",
"x c #6C6C81",
"c c #757582",
"v c #7B7B84",
"b c #75758A",
"n c #7D7D89",
"m c #818186",
"M c #83838C",
"N c #89898E",
"B c #858591",
"V c #8C8C93",
"C c #8D8D99",
"Z c #919196",
"A c #94949A",
"S c #99999E",
"D c #9696A1",
"F c #9C9CA2",
"G c #9E9EAB",
"H c #A1A1A5",
"J c #A4A4AA",
"K c #A8A8AC",
"L c #A7A7B1",
"P c #ACACB3",
"I c #B0B0B6",
"U c #B2B2BB",
"Y c #BABAC1",
/* pixels */
"+#@##+@@@#+#+@@++@+##@##%%&%%*%O#%%**%%&@@+O+@##%@@+#O@##O+++O+oO++++++++$+++$+O#++###@%@@+@+##.+#+#++++O@#@@@%@%%%%%#%#@@++#@+o",
"@tftt782tt9089929gttwtigjjkvlk:o%dzlgkes889195twtwt707773r3333$.+39333<399933u<332r90ifi079701#.#37t797977t9w0y98t6yfwyy00tt74=X",
"#ith0tphftptxiujpwjslthsynnMMq*X%jnmNmz07u8wt0ifihihprptuurr3=$.+3urr39xuxruurrrrrprpjhih9tii;#X+1uhf0uutihyjhttyiivyjvjffi0r>#X",
"+yiu0tttt3tiitytrtfifi8fyvmnNq:o%VSzlg9477>799f9tf7tr7tuu393r<$.+3xr933uuuuuuuu39r0ttiuui9rt0<#X+3hpufuu0ftfsyiytijgtjcigyiru-+X",
"+ru0r9ft20ri0t77t0709w7ttfjad8:o:kmdvy<79933t900utuprrthur3rr<$X+9u3393rrupurr3972uutiuui7t9f<@X@tjut9tuhiiywfthcjcswyysfjppr=#X",
"+7ur0iu20r7iffi597s0ty09ityjz6,o%MgMyt237tr0t9tuiuur9turr3rrr<#.#3r933rururrr33r3r0ri9u0p09ui=#X+7xittpypttty0wijBvitsfgiiiur;#X",
"#1prui0972wtf9jfjyffityti0phl4*X%wvih22;19t7t7pthi9<99993u33r=# +39rrrrrrrur3rr3rt0ffrputr0ft=%X+7909ttthtti0w0znlgcgtjsshtu0;#X",
"@90rh20709tty90glffwflcfguycz4%X@wggi=1t07<90r2f007rutr33rr3r=#.+3r3rrrruuur333r7ipthptwit7ti;#X@2i5509yjiwflvnMvcssjyiyjiyur;#.",
"#72prrur7rtfiisjswsitgjsfh7fc4*X#sgt11t7i059957tu2i0r9393u337=#.+3rrrr3rruurrrr37rthfrttu5700-@X+u91i0ti09sljlbvMklsjiyfispyt-#.",
"#7uu<ftu3r7uijjiiiiyitjifhiih>&o&sy>-2f0wt00<7ttt99t507r377r9;$.#33399rruurr33r3t9jxftr5i7972&@.O2r22rtttfsyjlmvvssjswcjysif0=$.",
"#9u9ti9ttuutnjsiwcljsifhgyiii;#X#7<23pittyctrt00tt079t7333urr=#o#3u3rr7urrurrrrr9hpthiu0t21r7=@X+173rp0fhjjhjMnjjlsjg7vhxhft3;&X",
"@iuuwt7ut7iigffgciittiigfhti7>%X#20tr927tiggthivvghfi0723rrr<;#.#3333rrrr93rr3r39wtyftrr992t0;%X#<30ttiyytjslg5yy<9w8yjcjsfip=#X",
"#si07i1rf9ighgfczsisjwwisiitu>%X+>ptr0<7tfyycnlnBvsjcs90935t3;$.+3r39337r33<39r390iiytt9t77si>&X#9r9ruuyisfifwywfgttffjssswhu-#X",
"+it30t<99ttfjsiMnjgjijglbhit0<#X+1rrt7t9tt5stljVMnlvnjznxtur0-#.+2r3<999rurr3<3uut0r0tytwyjiy,&X%7crfjuuyifh899yfj0rczfhi90i7;#X",
"#5u0t77909iglhlcVlagfmmMny0t9>#X+7trt9w09t4tgvfvVllgccnvMBpt7-#oOr3urrrupu33rr3piu7tttjwuyjsy4*o#qyfpitfyftiyyysfsw0scviwip09=#X",
"@<00ur727tfissvvnygzncljyypt0<#.O7ur12189tpcvmsBvsljlzgllB7i0=#.+ruuhruruurrr3upp0twt0wwinlng6:o%jvytfifhsjft7jvlgs0lbitgguu0=#X",
"#99ttr770tywcjjzjvvnlvnlzyy94;#X+27952<0ttymcjnMngvvnjzznny0t-@X#3uftputifuutttihtutwtpgsnlcv8:o%sgiit0lfyyiitglcjg9yfyjffti9;#.",
"+7r0ttu75900ljjmnmjzmksnvcyt9<#.O4u7u00wfyvvendznzsglsjlvm8y0;#X#3juftit00tturhithu0upttyjgzZ4*X%dsyywygisgsitfsj8<sjyss9itt5-#.",
"+1u992227t7isyykjeysggdljsjgl,&X@90512wtaiiwtywdsdggyaydjey97=#X#9r90y70091t97099t9t777wywklj4*o%8ygs8wssw8t088w872gfww0y0t77=#.",
"#=#####$*&:*-*,:*:--:::,,:::::*O*i%#$=*&:4**-:::*-::>:*:--*:;##X+3-=:==&&&$&&**&%*&*&&**:,:*:::X%4--*::*-&=&%%:%@&:-*&***&*&$##o",
"+ooooo+oO+oOX@+@++@@++@+O@OO+O+O%+OOOOO++@OO+O@++@OOO+++++OOOOXX@++O++OOooO++OooOOO+oO+oO@+O++@o@+O+++oO+Oo+O+@O@@+OoO+++OoooooX",
"........XX.XXXXX.XoXXXXXXXXXXXXoXX..X.XXXXXXXXX..XXXXXXX.XooXX.XX XXXX.XXX...X......X. XXX.XXoXX.oXXXX.X..X.XXX.X.XXXXXXXX X.. .",
"<=;<;22<;1585w5X*qq4qwe5ee9wy8,qwww154256545ww,X@1q8w1ewedaqq8wewew8w56w97171;;X+;=;14<<<8ww6eaedee481:5w0q5064o*54588457<212<<<",
"uuuurxjjchnbBd%X@aMMVVZDAVBAAcJvBAVbnfcclCbnva*X%wVVDvZKYSKNLJGADFAmcnnCGBnnnh#.+7prtt7jcASVNJUAIUSSDKJHPAnnmg%X+dcMBBCbnfxbxppr",
"u9p3uupuhtysi5*X*jgggjMvzccjlagssmjfjwihvmlsv,*X@yncllvSZNdnmgvsvvlvjjjclsiii>#X+3399f7yiinjmNMNSNZNvmANNNdgz5:o%wlvlljjhtiittu0",
"rr9rujpptwjsM1*X#sczzvVvzissylgdvjg8gkgfjjgyt,*X*szjsyZAZlskky8sfzjzsczzfbfsj>#X+;9rf0t0wtwsvjMzNdykajyNNNmMM8*X%yllcgispuwhiur0",
"3urptjiiityvs6*X@dnjsZlnlizfMkkmydlwsfsjjcgnm5&o%lldszHNZdzmsg50y9lvlzccvbslf,#X+<7pituftw7ywVkvkkMsligwlNmmm5:O%qjkcgyjp0ift0rr",
"rrr3ufhiwiifk5*O#aMiMvlsisszvjy9=nv8yfjmzigdj4&O@evjMNZVzNjnlg7w9iMmjzvjjsjsh>&.#2upi0tr07y>sszldggvza8iyvlMv6*X#yjjjsiiipjutrt0",
"rrtrtfh00sfhk4%o%gjvMzgwslcjsjw81Bjsggjvgccvj4%X&jBMgZVzNMmdMgtt0tjllzvzvjifl>#Xo3ptrr7ttr278sj8jlgm98yiisMlVq*O%ylvlv9jhuthuuu7",
"tr9rutt0itils4:o%avVzkfcvswyvlg>jlbjsbczjmjvz5*X%gnzkkNSSMgvnsfiwncnzVMljstjs>%.+3urtrupi7777wfzjgssii80y8zmn4*X*vvvVsiht0jpptr9",
"rr9rttwuyhsjg5*X%yvmvylli5y02ilMsMzfwsgjlzVts6&X*ggaVVAHnksmmvti5BlBvMmjzjiff<@XO3rru9ui091tttsjcns9tittijfVk6*o#djvyhtfliiit070",
"rrr1190isyjgy1*O@tnmztgw7sv8jMMgvVhgsjjjcbzsj5*X&aySmMANgMznMsjfpgjBsnzhlgiii>% O7rrr0upt9tt0wiMnsg9tfttfsjgn6*X%scglttjs0fir997",
"793rurpttjggy4*X@ecgvcsiwjfvvCllvlghisjvjgsjy>*o*eANjAAvyzgvszw559mVzmbcclsys<#.+3rr0rtftu0u00fmlyj0uf0thsivnq:X%smsyhsjfthht979",
"r907tpf0itjjf6*o%yzvBlllcvgBMzMlzwsiwhfsjfgys,&o%5DzmMVMnsggci5turtdvslzjciyy>#X+9r9t9ttwut19uiflsyt0ii7iwsnvq*o%avgfgfjfyfji5t7",
"2uuxfjf9thfif6*X%gMllzlMMggsfjitty7tyywyisstw1%XOvnzMVVzwj9tt>5ttty9y0jMsig0i>#X+tttr77ffiit79pjyviytt09iytlv,*O#sczBhjfislttt07",
"ffuiijwgtugjs4:X*yBvgzjsyihitwy4y7890iyiifygv4*o%yVkzkevl957t000ui0fs9vzsssii<%X+7077rufii9tt7tihiiwt89w0tjsl1:X@ijcngcgfyww0fth",
"sfcjfhs7wtcsg1*X*glmcczlycw8wt999wuuuyiscwsjl5*o%lvmlsjlew797tiii99f89jjdfist>&X#<rr7tffitui93ifif60t5t7iytfl4*X%jjcf8bzfisfjttf",
"ijctiiwwtishf5*o%aVmgvjlsi9tttr7rtituii70fjjg4*o%sZjdsfkgy057iuff0iyuikzvvsss<@.O7r30uhiiii921ifuwi28000iwyif5*X%gvwijtllsfjwigs",
"cswtfihi7ifyn6*X*yCcscnlswfittttu9tup7tiisyiz4*X&lVlzfg8ggy00ttt7ts0t5jvvzftf=#.#<790piiiiw29tpr10t9090ittswy1*X%avjw5ittftw9ihl",
"itiput0tyy0Mv4*o@sMcznldjyit895ti7itiiffhysgy4*o%lmljdgngwijthpu5twthfjlllisi<+.O2r3ttitut219097uutsfitttt09w;#X@:=9wyit09100iii",
"=%*=*&:-&&>1>::X%s:,4,:>;:>=&&>&--->&>;;-*>&=,&X%d::,,>>>>:->&-&&-%:=*<:4,*--*#.Or#&=&=;*-&&&&#$-;-=-&&$$===--% @w%>:*-=&&&#=;>&",
"@+@@+@#++#%%##%o%@%%%@@@+@#++O+O+@+@++O+@++O@%*O&+@%%%@%@%@@@#++@++@@%%%*@%@@@+.#o++++++O@@+o+o###++o+oOo++@@@@X#@@@@+@+@@@@@#+@",
"             ...                              ..        .             ..              .                                     .   ",
"@>>:>;:>,>:>,,,,*:4:>,4:><==--;X#=:-=--<-;&%,:,*4>&>&&=:,*,&*>-X+<1,44,,>:-&**&%$$=-#;;-&;&&&-=X%@=-=&&-&>>&&>>,,:,,><>&**=*&&&X",
"@tgifvfhhjbVvmDCDcMnjyslnfjitt@X+rhhifh0ujihsnvjcyttr9<20vn8cBo.+zBcvlnnblsififipi0hfgnjftwfw8+XO7pt5fwgcAmnBVDSNznSZBnVjViy70@X",
"@tjgjiiisgljvvzvcncjlfgvzits7<&X@thiiur7tt0hsjziiit9r<197070u>+X#cnvgglgzllystiijyynjif00t0t>*@X+9>2tr9hlfvmAHZNASNAVzvNlvgyi>#X",
"@0ffjcgbhfgfvyMjgVvacsfdscw77=&X#tjifi77rtt1icli77r0273297<77-&X*sgzdvwllgjlfsvjtvjMzjtyt0957&@X+20tttujsfzMVVVMVNNNSAVNvnMlc>#X",
"%szclzclllgmvvbvnvllyzslhftsf<#X+tihi9t0rr75hclwutr72r7t92<07>#o%lMnvkzsvzmlzDvmMAFgctwgw0i0<;OX+<itr0t0lnlZzmGAMSZHHVSmMnnnV<#X",
"%jnvcclccllnzvMnvzjlglfgfyyfi>&X@0hfttrtt09hysni09097979327r2-&o%dldlvgfwvvzvmnMMSZNvljswj0we*#XO7fr759gazNdNKFZSSHZSZNZSzkMz4%X",
"%jMVMcllggccvvMMzgnsdngnsg8tt=#X@9iiyf979975fiwytw7909r977r0r;&X%jMglgzjdgmvvzVVASNlZglMngaie6:X&cjypVldkzmZSAHSHSSSASNZSmAVM5*o",
"%dVVjcjMjgjcllcvVsmjlvlgc97t0>#X+0iiiit70u70gwsywtjj9930<707t>+o#>jicvdjsnmzMnzzNzzSAvmVZVmVze:O*NAlvAmaMZSKHHZJHHHZANzSZmmZNq:o",
"*lAzlffngzjfncjjjnMvgllfwsjw0-#X@0tiifrwh0tuhwiwvNMftrr0707tf7=o@vzdzcvvsyslMvnmzZSASAmZmANASe:O:MNMAvzZzSHKJZSNHHZSZNZSNZNNN6%O",
"*cmmscsllylcMzkssMcvmlgfjwi0u>#X#ru0uihtflgc7iwyMBAwp97077tjc4*O%wMMjnvjsyllMmVzMZHSSNZNMSFAFq,O*mSzmZHAAKJKSHHZHSSNZANNZZAZN6:X",
"*zmNkmgcglczczgjgnknnnljyy7st<#X@0i09ygfiijiwtgijnj5ifityscjv4:X*slnjlznysznmMvmmZHZNZZZZSAZZa,O*NZSZHSKSHSHHASSKNNSNmNZNmSANe:o",
"*gSkvmvncndjcsngcmmlBlvnvts9u>#.@9trittiiispfnjgugy5<5jlzhysv5%X%kzvglmjjlkvnmjNNSNZSmSzZZZSZe,O*mSJZHFHHHHSSSHSZNZNNNZSNNZzZq:X",
"%dzNMNvMvMznnyMflmjvvnMlgisuf>#.@5uittitiitjcjihbit07uj>j7yla1*X%dcvzzvbmmnMvMnMNNANmZNZNSZSSe:O:NFZSHHAANZZSzkzkmmmzNASSSmmNq:o",
"#elAZamNVvvmlskzgVsnzmnvfifit>#X@0it0fujjgfhysti8wfcB779u9ccz5*o*jmnMzllcvMvvlMZVHmnlNVNmAZHSe:o*kKNNZZNNSMZzasgnldlzNASZZAmme*o",
"%kSAkdNlgnvnkevnMjlmnjcjcjfii>#X+9uitixjcgsyywt4tllnslM52htss,%O#gcBlnvlvjymjVnNVMdyylzMHZFNZ6:o*zHNSSSNJNAAnfycjgzvvMVNSNVNNq:X",
"*vHkvNNklzldgjsywfzzczlysjjyp<#X+2p07iijfzhyji9t7gjsts72210ts<*O%dvzccljvslzknnlw8wtszCNNZmSZe:o*zHSSSSHSVMVkgjylsvvMZANzVmmZ6:o",
"*MSzdzmzMzlvjklefvnlzlyjsitt0;#.#ttupihgjjsigyngini1272t7u0ji>*X*dbvMwgcwwnygj01ty07yggnZazzz4:o*NHSZNZSNmNafj4tsjvvVAZNzdzZMe*o",
"*kNzkZmkMzmvglzjglvvVsfffiitw>#.+7pu0ifxcwgiifggBj0>1t30t3rth-%o%gAza0itwlvt2ww0w90hfiglzmnye*@o%dZmzZSZZNdgjiswivjMmZNzzzNmAq:o",
"*d6e646q47448461>4565454>,;>;;#X+r;;;>;>1>1=1-155;=$$<>;->>;:<,X%d65:;:>>54=#<<=&141>14444,*,:@X#a466ee66665844-,>46646464qq66:o",
"*:**:%:%&**::***&*-****&#%&####X###$+##&&&%&@%*#@%+O#-$##&##&:&o%*&*@#%%&%*&%&@++**%%&*%%%@%%%@X#%%%*:*%*:::**&@@%*-***::*::::*X",
"oXooXXooXoXoXXoXXXXXOXXXXXXXXXXXX.XXXXXXXXXXXoXXXXXX..oXooo.XoXXOOXXXXXXXXoXXXX.XXXXXXXXXXXoXXXXoXXoooXXXXooXXXXXXooXoXoXXoooooX",
"%%%%*%%%%*%*%%#o@%%%%&@%%#@#@@+@@+@#@@########+o+++#++#%#%#+@@%%%*@O@#@##%%@@##XO%%@%@%@%@#%##@*%@#@%%#@%#%%%%@X+%#%%%%*%%&***%+",
"9ddakzlkgkjadd*X@sdv8sasgww1999t0tiri97utwsy92+.+21<779wsf51wjgvg41>w90assywwwXX@tygyff8kzdyyw8ndw0wayygfggddw*.+5fyyydlgylvMwy6",
"wnMmZVZnNnmMl6*o%sDsjvccnt0utihufjcxsfffigc90-#.+1r0trrppttufcvjBw0ticjslczfj;@X#svjvncbMVjlcijVlsylMssgzVsly1@X+7ghivVCvzvVllyi",
"utyvMNZAMvmvA4*X%kjgnzcytistwtt0ppuftitphsftf<$o+3ur097pu79ttt0Bn59thgssjjlwf4@X%wltglftlvgjlcMMMjilsjssvillw&@X+22sihfwlNctg889",
"0utjsvAVNzSNz4*X%ylmlclfsgwtwt7iufftt0iiij7jj>$.+3ptrr9rt300i90f1wptf7isgcvnf5&X#ytfggcjidfjdlnVv8igjhyjtsj9t=#X+178jsfMcmzlsw0w",
"iyy0wfnAAAmvk,*X@5fzijzfhfyt7thwiftf0jhffgji3;+.orttrrr973pu0wtwtpfi0t0ysclzg:%X+0ilflbljwgysjj88siislhiiiyt0;#X+977wjMvmjliy9yi",
"9tyiihiNZklmmq*o%tssjlmlfytiyitfttf0pyyhjj909=#.+7trurrr0ur90tpifiiwtjnsstlgl4&X#4tsfgjvfsssgliyyghwgjgfiuw9j;&X@2990znvMyhst7yt",
"ititfst08wfse4*o%ysgccjigtuj9h9rtpi7ryifhi079=#.#7utrr9rt79979titifttahtnwdjv1%X@5wijgjcffyhgitwyhjjncjifs2jz<&X@5i7icBVnvgy0tti",
"sytyff0sjijjz<%X#algljjjffww9fwuiiiu1iijhtt70;#.+2puurrrrrrrrutiis0tivfv9ljln,% +lfsihzjfishvyshhsssnjbsi0scf1&X%9t2unVnzfy57t9i",
"i0tiitiysgvzv5*X%kffcnlsgwt00ttitiiiiuihiu790;#X#<puru33ururupptthtigijwwjlvn6:o%diyyjlggjhcfiwiytljjzvyifjjg4&X@i07utjnlgsyw0ys",
"u9it7iytglylz6:o%amhjicngfttty7j900ifuffjiu9t=#.Oru9urrrur0r9fuutift99y9tlznzq*o%vliscljygjcgsjh0sisfcjshybzj1&X@8i9tthlgvyi0wh7",
"fuut0titfiljnq:o%dmnvly7tjw0w79itwysphfjjt9t7;#.O3rrr3urrtrr7httytiwqyttyjnVv6:o*jV0jjfjfgsglissnncnzvzg8bvgj1@X@0pt7utsswwispf0",
"50twy0wiiffnmq*X*lVnzvjfiijty0ii0tiftfifp997r;$.O399r<rr70r7ri0w97tfcsssjlvmv6*o%kvsyjjysgjjjyiVgznlgksigccsj1#X+9ws0ruitwistit0",
"72r0tssglgnNN6*o*znvVjmMgfis9uiutttuifuutr4ur<+.#3pur33r7rt900t0tijsstcjjlgMm6*o*dz8ylsjjgfijefdMgldvjvcbMvgn>#X@9hiit0hutt20ti9",
"r90itusjmgmNm6*X%zZzVFZVSdwwwt4tyithgtttt99rr=#.+ruu33urrurp9t0uruf000t5tjvMz6:o@MyyswjgfyssfjlZmvfsgjjczlcff<% +7hsii9907iuttu9",
"70w09tisyvNmNq:o*kVcmmNMMz8ygy0tt0ffpur0rrrrr$#.+<r33rrxttti7hu70fiftpfiwtsdz,:o*zv0ggizlssfswMVVMiigndVnhvth>+X+5ifhifut0utu007",
"90090yhicgmZmq*X%kHmkNzmMzdszy070u0hfttrr07tu;#.O393ruprurr99ptutptwitti7ywwl5*o*zgtthszflgcfsVVzgshgggjlnji0>#X+9ijwswutuuitr9r",
"9r90iysgnlnNn8*o*kmZNNNddSVVslh5ittyup9t99ttu;# O<rrrurrurrrrhpuur7077099ftsv5*o*ev48zyfljfygjsydlvznlksbyknj>&X#ththhytiuutt0r7",
"r77770tsszdzm6*o%dZdzkkzkmNzdsyqs<89050312709$# O27<r33r<733rttrt9790;40tt9gw,*o*d579sasgyayiyy88sjgdf8yw8jsy>&X@yyiu0tti7709977",
"#$&#&*->-*>1,:*X*e,,:,4:,4,#*:::@%%-=&&#&&&&==#X#<$&##=$=$$$====&&&$&&&;:&*=**%O%:*%-*:>:**-:=-***%::--&-,:::-&X#2*&&&*==&&&#=##",
"Xooo++++oOO@+@@O%%+###@+@@#@O@+X@oOOOoooooooo+OX+oooooo+oOoooOooOOOoXOO+OO+++OOX@oooOO++++OO++OoO+o++OO++@++OoOX+Oo+OOOoOOO+Oooo",
"..X...X.XXXXXXXXXXXXXoXooXoXXX.X.XXX.X.....X...XXXX..X..X ....X.....X.XXXXXXX. . .XX.XXX XXXX...XX.XXXXX..XXX.X.XXX.X...........",
"#<212<7;:,5eaeqqqaeeeaadeaae64:X@4<1871;<;<51700772<<<1;<<<223=.#;;25<1;17>11><>-><4186:wwww64;X+7118686w5e14><<4225<;<<7712<;;.",
"#rxhuugjihtUKZSNSHSKKKJSSIIHNd*X@ecnBlftux2VbnxnCnbbhhphuxburr$.+3pxxhphtctbsitrthgfjnnjmSGDVj&.@ycBjMvjllMgfhcixcxhipjhjbbhx9#.",
"#tittt7wti8VMnvvzmgNSSZmZmSNNq%o%vmmljs099ihhhyfstifirpr3rrrr=$.O9urut0r07u7tt2597tysz0gVczzj4%X@wlfjsgyjjyytw9ytiti0ftiuhtip*#o",
"#0f9i0y9titBmNMVvgMNZMNNmzZSSe*o%sngAljwfBcszihhffiyi9t03r3rr<#X#7p79r7tr32i9972prfy8ssVzlBlc4#X%yjssljljgfljtitjy0iiui0jitj9>&X",
"@99it08ftwyCNNlNlzNNmNZNzZZNN6:o*aNSSmmVMMvfwsjshsfitit03rrrr<$.#3970u037tuiittssfijiwMzMcvls:*X@yjswfazncjjljgspitt90iitittt>#X",
"+icw0s09tijVNNZznmZNvMSASzzNNe*o*lSAznMmMjczvwythfyittttr7rrr;$.O<t7utiuiptlgif7tylj8CMmmAmfd>&X@8twgslBzscnlhitihshgiitt0uii<$X",
"%8wii9yigtfZVNmzkNNvaZNHHZZZZ6*o%kNNMZNNMMmslsftjfsiti7frurfr<+.#9ptuttij9ffjcylfzztBMmMjmMzl1%X@wswlcsgvdgll00iyifhuht99piuh>#X",
"@9fw7tfjijsygAmzzZzzamZHHSNmzq*o%NSkgnMMvlBksbgcy9jifttirutpr<$.+rpp97trtupgslcmBgjfgvmvMVZgv>#X%yltjwgyjignsu0tr0t0ur9ftitir;&X",
"+>tiuftjcsliqlmjZmNkmZHHSNNNZ6:o*mJdvcnlzlcnvjgbfjhtitu0ttt09=#.+9r3trffitiflhisicvMlvnmmNnkl>#o%ilVwMnffghgctt0u070rrutttitp<&.",
"Outuiuujjs0tsyzNmAMNmNSSZZZZZe:o*NNdlMmlzlzvmjlkgggl00urr99t3=$.+3t<7ifihfifjsgssvllzVjnvnNjj4*.%lVgAVNFMntjsut0u97uht2t0tttf>@X",
"+1uhritig98isjngmNMvVVSlJSZZAq:O*NSkvjllzgzvmlcccjjwsyfrr9rr3$+.+72tuh0jglsisfsffcdlmzvvNmzkdq:o*kmmNMANVstwsi70970997t7urfhp-+X",
"+3pr0hfi77wiwftvwVNmVAnvNzvZMe:O*kSmkkvnmzvBvvlcjciifu9uur3r3<$X+9tr0thhjftiisfssvvgnMNvkzdNzq*O*kSmSHZVygsisstfifir00ttpfftu;+X",
"+7rrut9590it0hhssmMmNSymVmMNSe:o*zSvzlznzjMnzMgjjgiuitjpr33rr<+.O909i7if9twwjfhfhgwnnVvgaammze:O*zZmAVZgwzfywshhfiihiitijf0ft=@X",
"+2rh0tfjsh0tfi7giNNwlgJMNHNvNq:X%mSdzlnvgvzvmvvnbgjjiiitxr333=+.+<ttt9igs8wfslcjjfmlnmv8egzmz6:O*kSZAAVzllw8gfisttfi9twthip9u=#.",
"+3ur9ttpsyu0ytt7ccsvccmNHNVmzq*o%mNlgMVlcvmMmBvvfjjittftrr939<#.+<u7uifnyt9vgsfgjnMzMgstlfnNmq:O*zHSSZNzglyyyiigisi08uw0ixyi7>+.",
"+9t07iiitt0wttt00itizjknZNlmd,*o%ekjmmZZjznjmVvlssjtuyuur999r$#.+2rr7tu21pgiisjijzgnadjzczjVz6:O*mISZANmgl8iigsff0tt0ittxsit7=#X",
"+399ph73799t70rttw1csvyVmmkea6*o%dvvVVkkBngvnmvcjylsjhhtrr999<$.#<rrrih7tlw9igjcMvzifigBygdmmq:o*mHSZAZNMg9i0jh8uittihblntu79-+.",
"+<70<12tf9itt009t9u0jygmlNlsg,%X@gnlvjkNMgzBnvlsylfyii9tru3rr$$.+3rriftttfyf9glzAs5yyfyszszMZe*O*mKNZASNNwyyi0wjjrtiwflgfit79;#.",
"+3#=&$-;==-&=*&&&&&&->,,,6::::%X#a:44446,::45,::>:>:;&&=;=&&==#.#<#===;$=,=&*>4>&=:&>:=:::4,44,o*Z,64664,:::--*>--==->>>;&&*&=+X",
"+o+o@+@@@++O++#++++@@###%+O@@@*o%+%%%%%#%#%%*%@#%@@++++O+oO+OOO.+OO++O+#+@@+@@@##++@@#@@@#@%***o:%%%**%%%%@@+@@@@++++#@@@@@++++.",
"                         .  .. ...  X..                   . .. ... . .                       ...XXXX......X.                    ",
"=>;<>=--&&&=--;X+;=&-*:&%,,4*::,44,<444:::,44,1O%>:-;>:=&==$====$$$=$-=&&@=>>==X@=*=*::>>,,64664,6444464444:=&;X@**--,,*---*>;&$",
"hngfjjihtrtphf@X#ygfjiljVvvlzgvjlANVldAdmzMCAA%X*sfhjpi79r9rrurr7r9r9ppu0ihhur+X@ttpxhccicVFSSHdZZNZZSSHmHMlyg@X+8fifcjfifijjttj",
"jjithhywtufjf>#X#9tfsisBmgtjzslygvnlzzlgvzMzl4*o%djjitu7r3rurr39r93rttttruptf&#X@900yigsVSZZSMMJZmmNNNZNSNzis=%X+7sycfsifttbjfhh",
"hiwu0ih0uffbj>@X@2ffttgtwftjjgyvfgMlgmnjbmnlj4*X@djgit7977urrrrr390turptupifp=@X@2tyisiAVnNZZNSSHAmSZZZSNZva9*%X@0ifzlltwiijtfis",
"flittiyti7jcg<%X+5hfjpi0w7itwsvwgjvmlVmslcvzN4*o@jnyi0p9939r3rr9rr9rrtrpu0hu7>#X+1ti9jVyzAFSNSHSZZzHNmSZNNMli-#X%0pffjijwjgfilig",
"sgwi0thupfylf4&.+9igwjt7it9tsgcstfgvlvMnVMnvkq:X#icjx9ru999rrr3rrr3rrrpruup7r;#.+1r0tccijMMVMZASmZNmzNNNZNN,y-#X@2y8jjjigsbswshf",
"xgwtygittfish<&.#thfffitt9tiyyMwczlmgvjVVlvMM8:X%wswur9993r3r99333<rur9rrrrrt<$.+30uuutyjjczvnAlmgNMNMHmGSqvy;%X#0iisglijfjfiihj",
"gts0tstititt7-%X@9ittt90iiwhhcsjhzdvzBvmvllBzq*X%8jiup9rr99339393<r9urrurr3ur<$.#<pupuiiwist5cMnzmNlNNNSVNAmy;@X+58ylitijhhyisyj",
"jsifj0ttr700w>#X@7fiiy9tyijjcfziljvflmvCvlvvMw>X@yurrpxu933r9r393r993rurururr=#.O7tt9ftr0titijmglclljMNVZNMMs-#X#80csy0jfjhtsjft",
"7ihji7t0900it;&o%tjfst9f0hsclslfivfjvnBcMnnMvw#X@8f09ux939r9rrr39rrrx9rrrruut>#.+2utf99twir7tpyfi0gygglZNMkMm,#X#2njhyyisjittfpi",
"7u2799729ti9u>#X#89ifsyi0jjjgccnnzzncvvzmzgzn1%X@80ix99rrrrx9rr9rrrrur3rrruuu;#.+7putti7tu7r7tf7wgsgjjzSvNNzv6*X@sBfsbgjjihjt0r7",
"7079<r0r7rruu<#X+990tig0sljczjcglsnslgczlhsyy>%X@50fx3x9xrx9<9r9rr39999999pur=#.+0t0tu0tput037320tizlssdMmzvk4:X@wvfysjfhjjtit92",
"t3t0tuu099iup;#.+5siihiffiiljjvfcVzcgclBVngss4#X+9u7xrr999x9xrr39r999rrrrr9r7;#.+9u0ut0fitttu9pi70ifcys8gkvzm4:o#vvgsvgzgjsjuu77",
"79riut59<tpfp=#.+1rifcjtifsljljvlngvzclcclcjg4&o@yhtu0ppx3rrur<9rrr3rrr37rrt3<$.+3ut9ithptrtuuttti9jjtyisyljj5*X%szsgsjjciji001r",
"r9rr9ti00uipr>#.@9ppfjilfgjgjMAmDAVsjlzljzyll5&X#yjjhfirurru993xr9r333ruru3r3=# +<pr0uupjrrtttturwttf0vsiiggv,*o#wsjncvgifwy0t77",
"tpt90tt7tihtt;@X@0ffftvvvjgcvVmcMVVkllcnzhbfy1&X#wtitrtpur99r99rr93399ur9ur7r=# +<trpiur0t07f0tr5rtt79ficijfl>%X#esccclisyi037;3",
"xrr9t7tt7fttu<#X+9rwthsnlvfvcVmMVmNllmcjjjlys2%X#tt09rpruur39rrrrr3rrrr3rurr3=#X+7rfttitrttpit0t97it80shgswzz4*X@anfisyyt9yt7ujx",
"ifu97t0iifitt;$.@9ftffjvMzlzcAcmVMkVzvBzjcssi,#X@tpt0trtrrr393399339r3r3r9u3r<# +<7rfhnf09uru092urrtwt9ifhhcz,*X#dlwsjshtiurptff",
"->>;;<><<<>;>;#.@7-><<15548,6q5q66468614444,;;#X@i;<;;<>=<=<==<==<<==;=<;<<===$.+2->>25<1;;>><&2>;;<;>>>><<4>,*O%y>141>><1>-;><>",
"#$&###&&#$#$###.+&##%%%*-&*::::*****%***&=&&##%X#&&#####$$$+++$+$$++###$##$#$$# +#%#&-=&##$########&&###&#%#&%%X%*&%&*%%*&&###%#",
"XXXo.XXX..o.o...o.XoXXXooXoooooXooXXXOXOX.X.X.XXoX..o..XXX.XXX....X.X. .X XX XX XXXXXXXoXo.XXX.oXXX.XXXXXXXXoX.XOoXXoXXOXX.XXX.X"
};
