/* XPM */
static char *result[] = {
/* columns rows colors chars-per-pixel */
"128 128 73 1 ",
"  c #30361E",
". c #33391F",
"X c #252625",
"o c #272824",
"O c #2A2B26",
"+ c #2C2C2B",
"@ c #2E3125",
"# c #2F302B",
"$ c #313525",
"% c #363A24",
"& c #393E25",
"* c #32332C",
"= c #36392C",
"- c #393D2C",
"; c #343433",
": c #373833",
"> c #3A3B34",
", c #3C3C3B",
"< c #3D461F",
"1 c #3F481F",
"2 c #3C4324",
"3 c #3F4821",
"4 c #3E422B",
"5 c #3E4133",
"6 c #3F403B",
"7 c #444F1D",
"8 c #46501F",
"9 c #404726",
"0 c #434C25",
"q c #41462D",
"w c #454B2C",
"e c #484E2E",
"r c #475124",
"t c #495325",
"y c #4E5924",
"u c #475028",
"i c #4A522C",
"p c #4F592A",
"a c #50592E",
"s c #424434",
"d c #464A34",
"f c #494D34",
"g c #42433B",
"h c #46493A",
"j c #4A4C3B",
"k c #4C5234",
"l c #4E513B",
"z c #505635",
"x c #525934",
"c c #51553C",
"v c #54593C",
"b c #434343",
"n c #474844",
"m c #4A4B44",
"M c #4B4B4B",
"N c #4E5041",
"B c #4F504E",
"V c #525442",
"C c #565943",
"Z c #585B45",
"A c #50504F",
"S c #575848",
"D c #595B48",
"F c #535353",
"G c #575857",
"H c #585957",
"J c #5B5B5B",
"K c #60605F",
"L c #636363",
"P c #686867",
"I c #6B6B6B",
"U c gray45",
"Y c gray47",
/* pixels */
"bbPLMbb,;M+,,Xb,,b,Fb,+;++,;,,;bs>gjssjj5dlccvacchVkldrccelitfcdvlfcsZZSSVZxfvkidj8<s-**;>;bM+,;+*>g:4>>MbJ;bLM;;M;b;b,b,+MbX,Mb",
";IXb,b;b,,M,bM,,FMM,,+X,b;,,+,,;XM>jl*NfedkkekthclCllVkcldlzVjcjZllS5cvvlvxpepip8iew2%-@OO+MMA,;>=>-:$+g,;+;bb;GbMb,,,MM,,,+F,Lb",
"F,,++F;,;bM,X,;,b,MbMMMb,X;FMbbM+n5gbbh9wwezeiewcsxeccclSfcchcllClfcjcvzcvipieppit8dw.&->>>bFbMb,$>$@=n6MM,b,M,;LJJbbbb,MM,,;;+,",
",nbBFXG,X+FFI,,XFb;J+bb,b;b++;,bb:;:ss5l5hlff9stVwy0repwzVccfcllcccVsccvckkvcwtt0trw9-&&*@+bbM;;6@****:>;+b,MbMbM,,MLL;M,FF,MbF+",
"bJ,,+,;bMFb;,GbMFF,+,bb,+,bFMb,bb,b+g+sdsgflfqheclpek0adSjhlsccVlSkkskekkiepwe0trir9w&s&>+>M+A,bn=*&=+OM,;,bMMK+bbb,F+,,JJF,,,F,",
";JbGBXFG;J,M,,JMbXbLFJbFMb,bbbJb,M*:shheshglhqshclvfhlZfcldVhlljVjVlfkikvzkvc0kte8w5qs=q>:gbbb,A>=m@*#;m;Kb+F++bM;bF,XMbM,MM;,X,",
"F+b,BMB,b,MbFb,;Fbb+F,,MFFMb;bMMbAmg-5s-sjgsj>jjljcjNlZcVcjSVlVllllVjekzxitkk4ttri9hw@$>:;*;M,b;+#O;:,FbMMJ;,;,FMFbM+J,b+bMMbX,J",
"bb;,JB,,,Jbb+,bMMbbMIMMbM,L;b;JM6bb>56>-Obb=:$s5h5kclcZVSNgVjck5gjjjVktiyitti2teee4>qs>5=@,,;,;,>+,,mbM6,,F,bMMb,,,FbbbJL,F,b,IL",
"bbMI,MMbMM,+MFbb,MG,LBMM,bFbMM,FFb,b:MM:>bb5:gwd&elchcCNcfmSjcN>jlfSleriytw882twe94j5:->*+*;;bM+n,F6XMMbFb,MFGFb,,FJb,,,LMbbJMMM",
"+,M;+JF,;bMMFM,bXM;XMBGGFGKFb;b+;+J,>,b,Mb;*m5e5qecklclcVhjkjc55s--cfkirut27u-q9d-:@bg6s>>;;b;,M:,:MbGM+M;F+F;,M,,FJMJJM,X,;MXMX",
"FM+MMLb,;bbbMbFX,M;;IJPbb,,+bF;JLb,MF;b+,,;>-qdfjdhlhcljljlldk=5h-seske09uw94-<&*hb,*>->>**+;,,H+b,b,J;,FF;,,b,,+;M,,FMIJM+FJJbF",
"+UMMFb,bbJF,,F,M+JMMB+M;PbbFMbMM,FJMH,bMb+>g:5NfjkljglSdl9k4qf=s5--esljcjlks&*=#5g,,>>>$$:+Mbb,bbM,,+bF,b,JMMF;;+,M;b;MJ;MIbb,J;",
"FI,M+,JFM,,bPb,;b,,,BMbJKFF;b+JMbb;;,MbFb>;;-sgjjjSlNSvkkdwe4d,>sbjsjjjjdjjg,*;*,,;M6X$=%>:@bH;,;+;M,,;M,MJ,+F;;M,M,JbMJ,bFJbMM,",
",M,b,,;bM,M,bb+FL,bb;M,;BMF,J,bFHbb,L,bM;,+>>hlblmcjmlSfewwdj=b=s>jh=lgjsh5,>,;,M;;++>%$$=@O@bbMM;b;b;,+M;Mb;FJMbbJMM,;MJMF,MMMM",
"MbMM,,,;;M+bbb,I,L,,Mb;G,F;;M;,;;F,Mb,,;M;b;>jhjmjchlccjdlsqsd>g:5shjbg>sj=,;b>,Hbm,*:Og@%;-*;b*Mb;+,bGJ,MbM;M;bM,MJbJFFJFFM,b;M",
",b,X,bbb,Mbb;b,FG,b,bbFKFbPM;,b,b+MFX;FMM;,>5fgNcfchNfkcqfes=5;s;dh5*j=gb>6gbM,bmMbmM*>=%@@=*++6F;bJ;FG,MbMbFM,bF,;FJbF,F,,;,ML,",
",bb,A,XbBbnG;Mb+M;MF+MMbbM;M6=-+@mb;gb;M;;b;>hjNcjzjSStxhdhds6,=5>h>5=>6g:sb>+FM;,+H;>*:-@5&=-;>b,;,,;MFb;FF,X,++b,,Jbb,F,MJL,,,",
"+b,b,MFbbbJ;bF6++;LLMP,,,,+,$q-$.=5;*bbbbM+;:jhjcNchfvvvjVl5-j55>:g5>b>>g;>g:+;MK;F;+;*:--=-5:,;b,;,,Xb,F,b,F;bF+MLFbbbF;bM,MM;b",
"A,+,bFFMBMb,;nM,,++MbbMMFFM;%$&.&9->;bHb:Mb5%jjjVNCjjvZZVNj-hhjgh:>>+;+>g;6,;X;+bM,M>;;=-5>56->g,bJFMUJJJb+;bMb++bJMbF,bF+FFFbXF",
"bAJ;,MMbbX,,bM,+bbbMFbG,IM+b&299q2*:*FMM,66,=j5jVNcjNcvvVjjfwqdh>ss>+*>;>O>@++>;,;b,;>*=g>b>:6m#FXM,;MM,,,MMF;,bM,;Mb,JMMM,bb,,+",
";b;bbM;MMb+X:+,b+,,Xb,,Fbg*O&39w9q-h+,,MK,,##sqhffCjjVxvzcjc9f=$s+b>>>>b>n:;*;+6M+:X+*+>+;;;;,;,;F,JIbMMJJXM+;,b;M,Mb,b,bFMFJ,bb",
"bFM,MJX+;+;,+;;bM;;+;FbMH;,%qw&0926sbbb,b,,b>shqflvfhlCcCzjlcfw,s#5=*#bb@$=>+*;F+;*,;++:;,b;,M;MF,M;FFLM,bFFFJ,+b++bF;,bbMM;;,,b",
",,bMbF,X;++;:,;,,bM,+JGM;,b4&eqchh4,,,b;;,M+=s6hlNcjjVccSchhhw9=f>6>>,:*g#*@g>>>+,b6+*;>;,,JGMJGF,;LFMJ,UM,XJF,,,,+bM,+JFMbLb,F+",
"b;M;bMM6;*X,;b,;Mb;++K,b;;;g%0&u40&6,bM,,6bOOb5hVjcjjSCCSVsfjqe55ss>*>>;g=5=*#>+;;;**Og;Mb,MFML,,X,MMFFMFbbJbFM;F,MM+JF;FMF,LFbF",
"FF,bMMb+>O##:;O;X;;bHbHAGbn--0qi9q2%6b>bb;6;=qgjlhljVjcVSj5heqw-<&$:+&o@#4$=:$*b>g+,,bb,M,FbMJG;,MMb,b+bMJLUFM;Mb;F+b,;+;MbF,;L,",
",J;MMb,+;*=6,#:MbM,bbn;;mMF=5e9jhh--**6X;,66;66hjjjj5Vjckf>ssees*=,gg6>@&@>->@*=*;*,;bMMFKbbbbMMMM;,MMb;M;,M;MJ;;Xb;+Mb+;,;M,b,b",
";bMb,,+bn:;bm:Ob;M,,b,::bb=>sf-hsw$s%-5>,Ab;n#&swhfjefkkhj>;gh-$6--==*5$+>@@;gg=6++>,,;b,b;,F,,MbbM;+MbFF;MbF;,+;bIFbb,F;bbMbF,+",
"b;;MFG+;,6,6*,,;,MHbBMb;O::s=hjeweh-h5>-;O=;;>565*wqfcVjjf>h*gs#g=5O$#5:5$-*>>>>:;>gKMMb++FH+bM;Jb++;,+,bb,M,F,MM;b,bb,Jb;b,,,,,",
"+;,,K;MFMbF#+#+b,,,+MOg+>>>qhw=kseshs9-2$$*=o$$*--9&&hsljj6>gs,n6:>>>$>>6-=:&*;5:g+,M,bbMFbbJ;b,b+;b,bXbbbMM+b,Mbb,,,,b,MFF,;,b;",
"b,GF,JJI,M;*::6bbB,MA,=:O*+g>jsk4ie2uddqs>6-m66@s2--&0ww9f>==6#>>=6>>+*+=*g5>*=-=+b+M;b,Mb+;M,;b,,+,M,;bb;,;XMM,;;M;FXFFMb,M,,;,",
"b,,;bJbM,6#*6$,bb;M,b;gbgbbg>jju2ifeefed*h6-:,ng@>=6&q7&qw4>$g*:+6:b,bbb*,**-;gn>6FM;XM;H,,bGMb+,;,+;+;XX,;;,,;;;MFbFJ;MM+,bMM;;",
"b,M;bMbb;;;*+;;;,M,b,;>+g+s>swsf5lessfww5hj-g;*6n:=bj>%w&4-=O$,:;>;:>>,>*;;::>5>*gb,,,;;XMF,;b;b,b,;;,+;;;X;;bbbJ,MF+XbMb,,F,;MM",
"Mb,;bbbbb,;b+;bb;;+;,,;;;>>--fwfslwsdwlfhhg>,>>>;,++;+;;,,,bs;n$6%o>;:X:6+b,,b6:;;,b+bbbJMM,,bbMb,b;;+;++;X;;b;,b;+JFFFbMbbFJMX,",
"M,F,b,M,bJ+b,;b,,M,M,F6*6m-shshfdfwqflljg5>>>>>b;,MM;,X;;;;+=,*>>>>5-;>;:mB#,,#6,;,F,;b;MJMbFb;J;,b+MbM,;,+b;+MbbF,;MbMbMbb,,b;,",
"XLbbb,;M+,;MF;,M,M,bb,;>5--jsjhfjfwfkwlf-=g;#+*X;;,,MbX;,;;;,;*5gs>5++>M;*6*6,##,+;,b+bbJIJ;,,+M,M;F,+M;X;;,XMb;,;MMM;bJb,,,J;b,",
"FFMFbMb,M+,,,;Mbbb,b,F,g-5-9dqeddesfdfjj>>>*m>,;F;b++,,;+;b+bA,+=q=>4>$O4:##:#=;,,,M;Xb,F,bLJ;MbF;b,M,,+;;+bb,bJ,bMbJ,FbbFbFX;bb",
"bFbFJM;FFF;bb;;,MX,bMF:*5jsdfhslffsesejl>h=:*M,,;b;;;,b,bBMb+,X=$4g-22>=>5>=>65=,b6+;bbbMFLbMJMJ,FMF,bbXX+b;;,+,bJbMbbI,M,,JFbMb",
"MFb,bFLXb+b;+;b;F;bFb*;5->hhjshjjsjjhhje==5*-;b*,b,;bbb,+F,b,bb;,5=5sg>-4525=4d5,;5*;;;+bb,bbMM,,FbM,,F,bb,b+;MI,;bFM,MMb,M,+;,,",
",bMMGMLMbbX;b+;;,bMM;;>>g5g5hb5jhggjffhd45>6,,+,;;+,;bb,,,,,,bb;m->w45g>g45555dh4425,X+b;;MMFbL+,,XbbFb,b,+,b,bMbbFF,Mb,+FFbFbbM",
"Lb;F,;,FMX+Mb;bb,;bFL,6b:5j5s>ds,Mhhg5hw%5*b+,MMFJ,Fb;b;bM++;F,;>-shsg:-*g54644w3222;,+,;bX,b,bF+,JFbFb+,IM;bMMIb+FXJ;FM;,;M,MFM",
"MF;,b,b,M,bbLbb;MM+Fg6>5smdssgmhMmbs5hs9$#>;>bM;LF,XM;;F,+FM+,,;,=sgs5::b6;6n54234246b*#FFJJJbMX;,,MMb,b+bbX,FbX;,MFXbM,;;M;b;M;",
"FXbFbbJb+b+,,,Fb,b;b+g+-5hhh5h6>>+,M*-225$+n,,,M,,JFbJMJ,,MMbbb+g>gsh,A;bb6662424566:b*Bb;MJb,FFb,J;MX,+;MMF,;bb;;,,JFJMMIXF+;MM",
"+FbF,Mbb;bb+bM,+X,6#:-:hshjs--*#,+,*--5&=+On,F,+LJbMLJ,bbMM,M+,,O*>s>*:6M,;,464*5#5;+b5b+Mbb,LMG,bXb;M;,b;;M;M,;bJM,;bbMJFJMF,bM",
"Ib;MM,bILMbM;MML;;,>;h56h&qqq=--b;;:>*->*>b;+bb+FFF,,;MMF+,b,JF;;;==@:+6bb,;+6>#O6+:M;bBbbJ,MbMFMbbM,b;,X,,,+bbMMMFMb,MbMMMMFF;;",
";MbFF,M,b;L,,Mbbb#***==hhs2qsq=-b,b#>@h#,X,b;M;X,Mbb,J+FMJ;bXFM,66F6A:,;;bbb,b;bGX,+;n+G+MM;MJ,MM,Fb,,F;Mb;b;bb,+bF,F;,F,,b+;,,b",
"M,J++;;;,+Mb;b;b+o6og6>ss7wq92$&6*,>&*%*X,,Mb,M,,;XbMJ,JbFLb,Jb+,b;;#>MM;,+;,Mbbb+,;B,bbMb;,;Mbb;J,;,MM;M,M+;bX;bbM;F,J+bF+MJF,F",
"Mb,bMM,+bMM;M,;+bM>-o=$>w.q4&&&&$##@-:gb;bbbF;F,+FMb,,b,FJ,b+,Xb;;M;b,F6;Fbbb;bB,;;M;Mb;,Fb+bJb,,;bLbFMMF+F,,b;MbM;M,;bJ;MMb;LFb",
"M,L,;F;bM;M,MMb;M6;*:g#-q%4$q$5g$:>-=;m+++bF;b;;,b,;bFLbbbJX;FMb,n;nOMFbbG,,nb;;b,bJ;b,,MM;bJ;+LXJ;M,b+,J,bbbb;,b,MM,+MbMbMM,;J+",
"Jbb,bJM,b,FF,,b;;;;;;;,,;55=--===>#@$b*,MbM,;bJM+bb,,,,,bF,Jbb,,;,+bb;bbbJ,bbMLBM,bFXbF,bFb+;;+,,FbbbMbLMbL,++,,,M,F,+b,,,bM;b,b",
"F;,Mb,bbbM;,b;bb,bbb,,++;;g;>;=,**,>*,bb,,bMFF,bJbbX,MFFbJM,+Fb+,Mb,,;FMFb,A;JbF;XbJLM;bFbF;bbXXb;;bF;bbXb,,++;+bIb+,,,F,,,bMMLF",
"bMb;++M;+,GM,;b,,;b,,b+;+;MX#6b**m,,J;+,;bFb,b,b;bMb,+M;,,,,M,,;FJFM,F+MbPJ+XBM;,MFF,,,F+J;,bb,FMbb;M;+b+bBbF,;;,b,FMbM,,,,M,;+b",
",MM,+J++,;bbM,F;;,;b,;b+++;b;:;X,b;b;+,,;;,b;,b+MM;,+JLFb;Mb;+b,;,b++MLP;,,YKLM+FJbJFJbMM,,,X,b++,bM,LG;GbL,M;MF,,,,;M,Mb;,,,Fb,",
"b,+,M,,;;;+F,bL;;,,X,,;,;;b;,+b,,;,,b,,bM,;,;;FbbJb+FM;;,MM,,M,F;M,JJ;+,UFMb;UMIb,bbbMb,MIFb+b+X;MM+b,M+,,,b,M;M+JMJbFb,,FMM,,,,",
"b;M+M,+MF;;;,,+,;+J;b+,M+,,Fb,bJM;bb,HFbbX,M+b+M;X;,,;LbLJbbMbMJbbM,MMKIMJ;FbLF;,;bbbbM;;Mb;bX;MJXXM;F,,Jb,,+M;,,b;b;,,;,,;F,,,,",
",F,MM;,,bMb;,bb,+M;,X;Mb+bbMGJ,M;,F,F;,b;FX;,GF;;JbMMF;bJFMFMJJ,MF,MJG,FMFPbFbb,MJJbJF+IMFM,;F,,,+M+M;bG,,,;B;,b,bbFLb,;bJFF+,LM",
"+bL;M;bX;;FM,M,b+bb+GM,Mb+b+,J,;A,;M,bKb,LMFb,bbFFJMbF;bFMFbXbF,L,MMbbLLFM,bLFF;M,,bLbIJFM,bMb+++M;b+FJ,,+;,M+,bbb,bFF,,,JFM,b,;",
"JFFLb,+K+b,,+;;bb+;,b;Lb;M;M+;M;LMF,YMJb,MXMbbb+;bMbJ+,F;ILMM+XMPFb,JFbM;JMbM;bb;bXF,FMJMJF,Mb,b;;,MJM,bF;M,bM,+;;,;b,GBb+JF;LFJ",
",Mbb,;,G+,,bLbFb;F,MMXM,bbJUMF,,IFJ+LJbJFMbbMF,bM+M,b,FFM+M,UMF;,,;MbUbJ+FFFbF;;JL,,M;LLF+;F;M+,M,b+;GM;,M,,,,B,*66M,FMBb,F+Mbbb",
"+b;bM,b6Fbb;,,,+bb;,,L;;;MMILb,JIbbJLMJM,bbMJM,,bF;MJMF,bb,+,M;;M,F;JYF;b,b,;,MMM,MMbbXFLJMGJ+,;;,+;M;,,MMbM,;,;;OO6;;6+bFF,bb;,",
",M;;,;,bbb,+;bb,,bF,XFLbM;bbbLFbLJIFMMFbb,M+Mb,,Jb,F,;b+M;,bXJbbbJ,UFn>,+bb;b;+bb;;MMbML;F;,Fbbb;,,MX,M,,bMBbFM;65#;+6,,Mb;b,,+M",
"b;;6n+g+FM+;A,;M,FB,,;FFBb,JIMbbJMMbFFJFXJ,MXIbM,b,bXbXbX,Mb;Mb,L;A,MbXb+F;+,FM+,FJJbXbF,;+Mb,GMMM+FJb;+M;,bB+b++#252Xo*;66;+;,X",
",+6#:g;,;b,;;,bBb;X,,A,;PJ;BJJbMMMM;,J,UMMMF+XMb,;MM;X++MbM,M,Xb,Fb+;mg*++bb;;,;bM,FFIGF+MbM,GM+;FL,bbb;,+;,,bb;*#5*#4*#46O+;+,;",
";;,5-*-4+J+,MJbb,Ab,b,,F;IBJ,MbMGb,KUPIUMJ;MFMFM,,,b+,X;+,,b;,Fb;,M,6; 6@#,bbbMLI,LGM,+bLb,bM,,;JM,F,;,M,,M;,b6;;o5#5<254*;5;;;,",
";,,4q4$.*#,,b;JMX,b6;;FbMMFJb;J;FBG,L;F,bb;XM+FFFb,bbX;M;;;;M;;bbbJ,X;%*>>Xb++;G+b;bMMJ,+MJbLMbbJMG,,b,b,,n;K,b;+5$2222634,;,,,;",
"99q<d&9%$$>++,>>;>*:b>+AFAbbJPKUJ,bIIIFM,b+J,FA,,b,+,;+;;,b,;+++;;;,;b+;++XA+JbMJMbMbF,,bLbJLbMFJb,bb,+MMM,+,X;,;,,;&hjjfqe44s9q",
"hwdfww9444-*+;;*s5sgs*;>bPFA,,,,PMMLKJLIJKM,MbFMMbMFb++b+b;;+bb;F,bbb;b;:Ab;,JMPM;FFbbbbb,bMMM,FL+bJbF,,,Mb;,+++;;,;$eqflfedjeee",
"wwf<882<9-O&--sssshs*=j+;FJJIP,AJ;;MUbF;AMF;AbbbFMb,M+,;;b+,,,+;+;;BbX+FFb;+bb;IMLM,,bJMb;bFMLJ,,,IM;,M,,b,,;;,M;;b;2fusc2wqfkke",
"8f888w9jqs9q-ssNqss9&--O;,;b+;bMbKKbMM,M+,JFP,bM,bb++++,+,;+bb,;Jb,,;M;bF;bJ,bBAM+MbLLM,bbJbUMbMbMbXF;bMM,;;+bMbObb,qew289wjVctu",
"fe8weefdds4d4&dshdjw4<&s;+,KbM;bK,bbFM;bA,J,XbAFbA+,A;b;b,,b,+P;,BFFJ;MF,L;Abb,MM,bF+;bXF,MbF,M;,bMbFL;bMM,LM,b;6=ssqwu0u9clpvkt",
"9a8cewkfffj9ffdjj9jjfw4@;M;FLAbMbFXM,LFFF,bFb,bbb;FbA;,+,bb;b+X,;;X+MbMbb+,JKKbMMbMFML;Jbb,IbbbMMMbFMJMFbb,,bb,;**shfwwftlvlkvle",
"fieefecjdfdwwlVjNdjfNss>*+F+,H;bMJMJ;;b,MJbM,bb,bb;b;b+FbF,F;bFb,Fb;Lbbb,MJb+GMbbM;;FLULMJ;bF,bMbFJJ;F;;M;b,M;,,b;5sslfdjlickvee",
"feieeeetfkfjjcVcjlcVjjhs>>;+bgAObbb;,FMF,,,+,bAF;,;;,;b+,,;,F,FFMM;F;LbMbbBIIA,;MXFLJI;JJ;JL,I,b+,F;Fb;MMbb,FM,b-=ss5ldddecllkff",
"heeezzeiqlfjjckvjVCVjNhh4g-g>+A;MbbJFFb,bMb;bM,m,+F,XX+HFFXMMFbbB,F;FK;X,MMJ,MMJ,,b;M,LGM,+MFLKMFbX+bM+;J;,,Fb,;*h>>jj5shfZllcdl",
"NfNffeVcjljsVClVfcScfjjjsgg:**;+b+,,,J;FgM;+XKO#+,;;;:,>b;bMM,b;bJ,I,A,MMFMbbMLMJM;;bFMM,,AM,+AFbFF+M;,M+X;,,b;M,>hhljjjfmclcCjj",
"clfdzlcVNjjVVljvclVchjjjh>>:;;;+,;,,M,J;m,**;,m+,;;O+;,,;;,+,,;b;,;b;;AF+X+J,MFL,Fb;FM+;,,MMb;bb,XXbM;,X,;M,MX;,*:smjjjjjVcllCjh",
"fNkfzZfcVjsjfSjclfjSjfNjf5>>>,;m;X+,b;M;*o;=#;>b;++,X+;;;,M,,bJ,XBJM,b,+;b,;;b;+bF,F+bGb,b,M,F;;,,,bM+XbJ;+,,b,;5:skjfjmflckdfjk",
"cc9fvzckCcjVjSjcVjzcdsjds5hg;+++g=>=;b;*5*@5*;=*=*=->=>+g;;,,M,bbb,b,6+;bb+b,bMFM;Mb,;+M,b+;,bb,,,MFMM,bbbM,,,bFggjhjcjldzcelVjk",
"cCdlVcVcZjjl>VsVjjjcs4sh;,;+M,,+g,*=,**>-4-2qO-*=555*>,*;;bM;;+M,MXF;6;b;+++bXG,bMF;FFF+M;+;;,X,,+,;Mb;+,,++,;Xb55fflljlfzcjjjdc",
"NlffcNNlzfhesj>qdssqg>>g;;,;M+,M;*54*$=444wd--5*sqd4=5;***b+,,bb;;FX,+;+;+,;bb+,,M+bGM,+MFM;+>+>,,,,M;,J+b,JMMbbg5NclVjjjcSNjlhl",
"dchlcljScfskjVjssh->,b*g;;Fb+bb,;,s5shs9<8wfqs5qdsw25->>;*+M,b>>,M+;;O=>;++,;;GMFMMU;b,bM+F;+m+b,M,b,b,Fb,bbFbb;ggjjfljljlcfmdjc",
"4ijqtl5llfwffwh>>>>gb+g,MFb,,M,;*>;hfh9e8hwcf4dfjq<&54>5;:+*:+X;,,**,5--:>=,,b;,,,,FbM+;;,;;M;#>+>*,b,b;+,bM,;,,=hsjfklldfvlffhl",
"5cNwvkqlcNjNhhs5=,g+b,,+,F,b;F;,*>5w919elfflddhlfqeq4s5>5>>:;:Hb;+;=655--g*>,;b++b,,b,,;X,++;,*=$;>g,,,+,X;b;++b-5dscckeljClkjhe",
"slllcrjNSfVjh,q+=ggb;M,,;;;AFF+,>>49dweilfl8fjfhhjddh5h>>,:+,,::>>5-j4hh5>>;+Jb,bMA;MbbJ;,+bX+>%&==@;,b,Fbb;;bb;#>djVVlkklcjlhll",
"=lNccVjNcljV5sq55;+mF,MM,J,J;A;,O-4d8dfef0tecsffcNcljsgh>5,>,>,+>>4-s4sss-++KAA;b;bM,L;,,FF;;;*&&=:*+b,FF+,MMb++*ggcVVVCCjVjjNlV",
"gSlclVjVlNNNjsjs5;;b;FFbb,bAM,MM>5qwf9fezqkkVhsVjcNjfsd5g>g,b**,>>d2seh45-:XMMFb;MFMMFFbM;M;X;;,4==*;,bX,;;;JIXb;;gljljVcgClljjC",
">ZlcNNfcjVSljhj-,;,bJF;;bJM,;F,A;-*hffwliffetqfcljjfddssss5*;>5,55s4deff5--6,b;IFMU,MF;FFIb,;,b,5,@g;,,M,,+ML,M,*>hjVcjCCjCjjccS",
"jCjcjhll5efNjfj-g>Ab,MJ,MbbM;,AX+*gqjhfccwcwf4lZcVcfsq4sq4=#;Og;=*4d4qds5*;;,FFbJFMGJb,,,,bH;KbM5;;,LFJMK,;;;bK,>g5fjljVVjZlmVVV",
"jChfffkhgeNfjhf>bb,b,M,bJ;Fb,,Mb;=>>h5sSiwi9l4fz4ajwlw44d&-*;::*>--s4h>-:bMMFM,MFMMbJJMFIMMFF;Jb:,bmbFb,F;;bbbb;;55jhweVcfSlhCVS",
"jChjlflshhfjczs*>,;FAAbFF;;FAb;;>*s>shhl9ff>zqdcjlflle9-<&4->@-*b==45j-$XMb,bM;MIFMMFMM;JbYMMI;bbm;AFKb,b;JbmAFM*:g55jjNVjSljVSC",
"sCjjNNSsssljVjs4*>bb;b,FM+A;M+;,b;,,gsshwssgqssSffVc0qq29944s#-**:ss-5*:bnbKb,LM;bMJFMbMMMGLM,+MJbHK;MFM,M,,++bMm,gjglgVcjZNVcCV",
"NSjhjNSNNNNVjlhh>m,bMM,;MJ;A;b,,*;b;s,,;-=sgsshSNjcwlq04299sss*5*,#--+5,,bb+JFMbFJbMb,JMMbJMIFJMbKIP,M;Lb;bb,JX;;+>g>jjcmcSjjccj",
"lCdjfNvssNhcefs,>+A;g+MM,,b,b;X,,;g>;;;,*,>+->>lddeceweq9df*q-s>>s-q5;:>,,,MAIJAbGMFM;bbbMXJJFbb,,b+HbHb,O,Mb+M;m*g5gfdjjCcjlffc",
"jNlejjcjsljcfj4s*+;;bbJ;FJbMXX,+,,,+X,;b+,+b,;;Vfhlcle0ee9l4455>g>4-4*>*#++bFMJFF,bFLGJ,;IFMMJMFbbMb,,M;*+;;#;;*;-fhjddlfCzjjfjc",
"swfzfNSlVNlzffhd4>,++,;+F+bb,;M;;M,,;,b,;b+H,h>efswvNf0wfqfdes5d@+@ds>O$>>;M6;,bb;MJbJbFI,,FFbFbMb;JJM,M:-$g65:-gghhffqlfCcjjgfC",
"2wwtwfzlNhVzefss>>;;,;KbbFbbbA;+,Mb,,,AbAgbm,,gljdeCcefffjjdfs>>>gs&->sA;>F,,;,,bMbGbbb,;+J,IMbJ,,PM,;;b:->$%>55-dsjqdefflkelqqe",
"w98ewdzjhVNvjddqs-,+,+;+bMMF,,MbHAKAF+bbb,;;;g+j9ewazieiwqdf-4>+>*$-$-5@*>Mm;MMM,bJbMJMb;bLJbbJbPMbAMJ+*5&=5%&44d9ewdweweaheq9w8",
"=-2reqcNsVccjf8hw->&*;Ab,,bbH,KF;FbFbMb,L;Fb;,,d4efkrei8i9fdd>5M;*->$,;;;,,,+b;bBMnPA,,M;,F,bFFLKKFM;Mb;@=*=-&&ddg008wi00tes=5qd",
"s*filfZlffccdqffjq=*gb;mM,MKAbbXb,MFb+,,b;,MbM5qdlshllVffffld>g+O6:*o;,;;,;;;bbJJ;bJb,n,;bbXJF,HMHKbJbb,j:-@sssqddftdutetfjjs,>=",
"->fklhllfSlVhhSjjh55>,,,bbJP,bbb,;,bbbb,bbMM;+>dsjddkkkllfffh=>g,;O$,#;b+BMM,F;,MB;HMAXnb*6,H,,;FbMAAFF;FM,b=&$e909teur9weeg>M>m",
",*dkwhfNjjcclsVlNjs5>g;m;bbFL;XbM,;;;MbJ;;,;mgO5sdqwaeeww9jd>=>:O:+s#=;b,GbFMb,FLJ;J;;,6*$M,:b,KK;MFbHA+M,g;5=52=<wtwiew0eh>;:;:",
"+>qlfdfljkVNjsccjhj>-*+;;,bMAb+M,b,;b;mMMb;,,,b-5d-dzkkecsdj$;+:+;gX,Fb,b+MJbLbb;;bMn6,#,=>=5*oP;;;FJb,bb,bMg:*$s98isktwi4d;6*g;",
"g>jNd&iwekkVj4zlfhjss>=,;,,;bbb+bAXM;,A,,XF;F;b;>dgjllljjg5h:>g;*+$#b;,M,b;FbFb,Mb;,#,*$@=*::gFMb;+,HJJbHMA,,@;gg-hcddlfk>h>66;+",
">5fNwdckkcjSjjaefffsh5>*;bbA;b+++,,+;;;AMFbb;b+;#55hhhcjN5:gb,5;:>;;bMMLF;LMbMFb;,b++#=g+=g5M,,:bKb,FMKJAF;;bMMJjsmiqdjfihs*g+*;",
"ggjff>clVlfSjjcwlfNdds*:b,;+F;b;,;;;,,A,b,;bb,b;bg>dhsh>>gg5;g,b>+=;b;JbM;bJIbMF,,M+=:6:;6;bnoM:bFMbb+,b,*;H;Fb;b=>s5s4widqs+6:5",
"g5jd>gclljhvjfklljVsjs5s++>>b,+,,A*A,*gXbM;,;;,**56ds5k5:*A5b,;b;,b;;Lb,;JFM;bb;+;o:=+>:+=,b,6A,Xb+,bJMJ+bMLJb,M++g4q44wu&s&4n*6",
"X;>sjsVNVjsVjjCczjVjj;5,>;O>M>b,,+*,*;;;Xb;,+b;Mg+*h5dj5::;g;;m,6:;KJnFB;,F;b,,;Ao;#==o*h=b>=@+,;;+;M;HbFI;MFIb;A6,6=dhqdds>4;>$",
"g5sggsjjlsdfflccZjj5hhj-*-=-;>>+b;*:>#;>+:g+,;m,;5g6hsl*g*g;A,>*;n,GMA;,bbMF,Fb;M*O:*6,;:::*@>>=+;,,,IM,bMbbFKbMb;HgM-@g5jj4>;-j",
"hgs5>NjgjNelwzezSjhmhhgss>>9=$*;-;g;**6;:6;+b;,:,>,5d>-q>*:b,m;;;ObbF;J+BJFBJ;,b;,$$gOo*n===#-#*,+,,bFbAMMJbA;,F,gH,Mhgj=hjsd*jd",
"s5ssgggh,jjVffaycfsVhjgsjshh>=$>m5***;>,*>,#>+*O>;>=5-d55*:>+m,m;;bMJJ,F,bFbA6;+>#&$$5O>@O%&&=+6+,+;;++,FJMMJ,+bJ+;OM;;>sgj>jg-4",
"dh@d>:sj@hfcfjziidSjj,4j5sdqq4&*+*+M>O*:**O:+m,*55:*d>d&5g,g;>;;;Abb;JJ,bF;M,;,;*55#-=&%%$$.$-,$;b;Xb;bHMMM;;;bbMMM,M;*:-s>shs4d",
"hq,-+-+*-dseeektewjd5js5ddwfqq4g**++$b>;>>>:>*;,--g-w-e<4@5:,m;*X+;bF;,FM;A;MA:,##= &&4&$<%$$=+omMbbMK;MbbAMIbM,M6AM,;:-s4-q-qd>",
"4q=-sOgg4s-wefckc8iwjj4jjhNjs&%-$6M,>;5>+5,*-g*>>-&<0-4-s5+:g+,+M,+FFFF,;F,FnFO#&$$9.$.&$-5,$J6;X,HM,,,F,bM;bbMbM+M,*6+5s4-55-s5",
"g4+>S,Mg+g4lkqikeeet2tqejNhjq4-=-*>++6+;*:@+>g5>ssqww<805s>*;,*,FbbMF,,,M,,,,;+*>-&-&$$->*o+ObXXb,M,:b,*X++IIbbbX,bMb;,,,:=>,*46",
"5&>;g,**g55fq8y2ite8eiwwdVfjd55+:#,b:;>-g=*5g55-dfdesli<&s=6b;;;b;A;bbb,M+KF,b:>o--6$$*;6=*;;;MJH;,+,F;,,;;FGbMMM,,;b,+;*;+;>,g@",
">gb>+,;bb*,fdeekeeekezzzljjj5g,:n6;;>;>;$-*5>s-5sfdfu0iu05**OO;;X;+;bb;,+MFb6+>>%-%>5*-=+gb;;Mb,bMXb6*+X;+;+;;,;;MI;L;Gb,;Ab;b>b",
">+>+;,b+bMgmssdjVljVjveccldsg>,h>+;:66>-gs-#-dg-0u&wtr0wwd>>+;b;Mb;J,,b6;;;,;:;*5+4*$66;;M,nM;,bJM,,:+*>O:;,;X;+;M,b;b,,,;bM6;gn",
">>g>>;MHb,,;>bjjVjVNjSvclfss>bKMb;:,>g:g=-5>#---kwsweeecfh5$*-,:;b;;FM;+:;,**$>O-=+*obMb:,bG,G,,;;bb+*>#>#,;;MMLbFbM,b;FF,MMM,:,",
">>*X>;A+bg+,>5jjVjVVeVzcefsgg+bm;A,bMM:-:=54-g5skf&fdzffdcfh>;:,F,M;b+=;=$:5-:&g>X6gg+,F6,+bbMb,b,+;+*O+;++b,;,;MAK+b,;b;+,,,6,+",
">5s+,+bb;,b,,*hNNjjljlaeiws>mgFA>+M,g>->-5gss5hjsfsffpecjcjs>*:bb;M+,+b>2554+-2->:>bn,MbbA+bbbbbb,+b;@o;,;6F,,X;;;H,,M,bP,,b+>+*",
"+>>*b;m;;+Ab>ggjjjjlllzce494;mb;bb,;b;>;,-sjhdhhjcsedkjchcjjh+:gbbM;;;,:ss4s4h5*b,;,AFbMKF,,,;Bb,F,;#$>>*++,;;F,AM;,;Jb+M,b+*O:+",
"*,>,5g,;;bJ,b,>h4jjckjkcieq-O>>g$=#5>A,g>45jfjsjfNflkcefslZf>>+**On**Os4sfsffse4+>;LbMb;X,,+MAbb;bMb;>,+>+;:b;;bX+,F,bFb,A;;;g>*",
">***g;,;Xbb,;b+bsjjjkfzeee8q**;sg55*;;,>>>hscecffjskkdwl4hclsh:::>*->5&24w9ekw&2M*>bFFb+F,AGMM,b,b+;+>==>+>;b,X;,b+FJK,F,Hbb+>*;",
">*>bX;,m;,,Mb;;,>shdefzkifej>hgggjs>>;5b+:dq5ckekflclfsf5flcqs>s=s55:5ds9teefqu2>*b*MbMM,MbFbF,b;,,;>=>#>@;,+;bb,,Jb;M;,M;,+6#>:",
"+g,>AbM,,bb;,M,b,5:hjfeeffie>jhhhshh6+:5g6uw0etfiwecllhchjSVhhh-5shssslqszkklew&>=*+M+;M;,,b+,b;,,b:=&5=>;b:,bbb;bM,,M+,+M+X;*>;",
"b;+b,M;,b;,Fbb,+,*,;-*swjffjjNjgjhshgg==&>ehwrcfe9lcllhkhNVjgjjjssqs:fhefkclvflu$4>>Mn+,,JbbbbM+b>*#%.$&*Og,bFb,,;,FMb;M;,,J;;M#",
"mbbbX;X;MFbH,Mb,+OgOg*sdsqjNjNNjjhdfh>j454fdeizeedkllNlllfVlfjssffhl5Vlkeyzztfte&2%&#O@:A,+,FX;;,+X+4s-**=,;M;b,bJGMXb;M;b;;*>bb",
"Mb;b,,+MF,Mb,b;,bmbm,;-4=2djjjjjlqfjf44sgeecixckcjcfjlcfjkklldejccjNsSSzexvvkkvtd72q4s+#b;,,+bbbg$m>445s,++;,FFb,+bMK,H;,;,,;+:F",
"bMbMbbM,Xb;,bXFMP,Mbg;>*=%-4g5gsj>qf4:edhsffcaikl9celwkkleirudk5akjcgSvSlZxcertp9ed9%*+;X+bF+*M++*=@44s$;;+,;FLMbMb;M,;b;,M+b,,M"
};
